<svg xmlns="http://www.w3.org/2000/svg" viewBox="0 0 900 1600" preserveAspectRatio="xMidYMid slice"><defs><linearGradient id="sky" x1="0" y1="0" x2="0" y2="1"><stop offset="0%" stop-color="#100a25"/><stop offset="52%" stop-color="#29124a"/><stop offset="100%" stop-color="#070512"/></linearGradient><radialGradient id="glow" cx="50%" cy="0%" r="70%"><stop offset="0%" stop-color="#8b5cf6" stop-opacity="0.34"/><stop offset="100%" stop-color="#8b5cf6" stop-opacity="0"/></radialGradient></defs><rect width="900" height="1600" fill="url(#sky)"/><rect width="900" height="1600" fill="url(#glow)"/><g fill="#2a1a53" opacity="0.95"><ellipse cx="180" cy="340" rx="140" ry="58"/><ellipse cx="350" cy="290" rx="150" ry="62"/><ellipse cx="580" cy="345" rx="170" ry="70"/><ellipse cx="760" cy="285" rx="120" ry="50"/><ellipse cx="250" cy="450" rx="165" ry="68"/><ellipse cx="520" cy="440" rx="195" ry="72"/><ellipse cx="715" cy="420" rx="130" ry="56"/></g><polygon points="590,260 520,470 620,470 555,700 710,430 620,430 690,260" fill="#f3e8ff" opacity="0.82"/><polygon points="245,405 200,550 270,550 225,690 340,510 275,510 320,405" fill="#ddd6fe" opacity="0.72"/><path d="M0 1185 C100 1120 220 1140 330 1060 C440 980 550 1030 655 960 C750 900 820 920 900 860 L900 1600 L0 1600 Z" fill="#09090f"/><path d="M425 660 L505 660 L522 1160 L408 1160 Z" fill="#1f163b"/><polygon points="465,520 610,660 320,660" fill="#2c1c52"/><rect x="458" y="560" width="14" height="150" fill="#7c3aed" opacity="0.5"/></svg>